<svg width="26" height="32" viewBox="0 0 26 32" fill="none" xmlns="http://www.w3.org/2000/svg">
<path d="M25.3685 23.4393C24.6748 24.9745 24.3436 25.6597 23.4503 27.0161C22.2058 28.9103 20.4497 31.2695 18.2737 31.2894C16.3409 31.3075 15.8442 30.0325 13.2201 30.0478C10.5962 30.0632 10.0494 31.3122 8.1164 31.2941C5.94042 31.2748 4.27796 29.1444 3.03202 27.2489C-0.450586 21.9514 -0.814442 15.7352 1.33345 12.4306C2.85981 10.0807 5.26879 8.70772 7.53291 8.70772C9.83837 8.70772 11.2879 9.97069 13.1948 9.97069C15.0442 9.97069 16.1706 8.70569 18.8366 8.70569C20.8517 8.70569 22.9869 9.80191 24.5086 11.696C19.523 14.4255 20.3336 21.5371 25.3685 23.4393Z" fill="white"/>
<path d="M17.6207 4.78777C18.5894 3.5454 19.3239 1.79277 19.0568 0C17.4745 0.108138 15.625 1.11426 14.5447 2.42527C13.5639 3.6149 12.7539 5.3796 13.0691 7.09487C14.7951 7.14899 16.5825 6.1181 17.6207 4.78777Z" fill="white"/>
</svg>
