<svg width="26" height="28" viewBox="0 0 26 28" fill="none" xmlns="http://www.w3.org/2000/svg">
<path d="M4.21238 27.3178C3.57943 27.7265 2.8192 27.85 2.10599 27.6817L14.638 15.1631L18.6996 19.2204L4.21238 27.3178Z" fill="#F34234"/>
<path d="M0.550669 26.6643C0.201224 26.2002 0 25.6302 0 25.0273V2.72784C0 2.12492 0.201224 1.55497 0.550669 1.09082L13.351 13.8775L0.550669 26.6643Z" fill="#00D6FF"/>
<path d="M24.0006 16.2574L20.3503 18.2976L15.9251 13.8772L20.3506 9.45654L24.0013 11.497C24.8758 11.9864 25.398 12.8762 25.398 13.8772C25.398 14.8782 24.8758 15.7679 24.0006 16.2574Z" fill="#FCBA3D"/>
<path d="M14.638 12.5922L2.10687 0.0742986C2.31226 0.0259405 2.5214 0 2.73042 0C3.24722 0 3.76209 0.146782 4.21252 0.437464L18.6998 8.53483L14.638 12.5922Z" fill="#0DB15A"/>
</svg>
